# xmcd
#
# Track frame offsets: 
#        150
#        23239
#        43665
#        63840
#        96877
#
# Disc length: 2039 seconds
#
# Revision: 0
# Processed by: cddbd v1.5.2PL0 Copyright (c) Steve Scherf et al.
# Submitted via: ExactAudioCopy v0.95b4
#
DISCID=3807f505
DTITLE=Kenny Dorham - BlueNote17
DYEAR=2012
DGENRE=Jazz
TTITLE0=Afrodisia
TTITLE1=Autumn In New York
TTITLE2=Minor's Holiday
TTITLE3=Sao Paulo
TTITLE4=Trompeta Toccata
EXTD=
EXTT0=
EXTT1=
EXTT2=
EXTT3=
EXTT4=
PLAYORDER=
